<svg width="5" height="23" viewBox="0 0 5 23" fill="none" xmlns="http://www.w3.org/2000/svg">
    <path d="M0.572188 3.00601C0.545146 2.73661 0.574869 2.46453 0.65944 2.20732C0.744011 1.95011 0.881552 1.71348 1.06319 1.51269C1.24483 1.31191 1.46654 1.15142 1.71402 1.04159C1.96149 0.931748 2.22924 0.875 2.5 0.875C2.77076 0.875 3.03851 0.931748 3.28598 1.04159C3.53346 1.15142 3.75517 1.31191 3.93681 1.51269C4.11845 1.71348 4.25599 1.95011 4.34056 2.20732C4.42513 2.46453 4.45485 2.73661 4.42781 3.00601L3.67606 15.3091C3.64702 15.6009 3.51058 15.8714 3.29324 16.0682C3.0759 16.265 2.79318 16.3739 2.5 16.3739C2.20682 16.3739 1.9241 16.265 1.70676 16.0682C1.48942 15.8714 1.35298 15.6009 1.32394 15.3091L0.572188 3.00601ZM0.5625 20.2498C0.5625 19.7359 0.766629 19.2431 1.12998 18.8797C1.49333 18.5164 1.98614 18.3123 2.5 18.3123C3.01386 18.3123 3.50667 18.5164 3.87002 18.8797C4.23337 19.2431 4.4375 19.7359 4.4375 20.2498C4.4375 20.7636 4.23337 21.2564 3.87002 21.6198C3.50667 21.9831 3.01386 22.1873 2.5 22.1873C1.98614 22.1873 1.49333 21.9831 1.12998 21.6198C0.766629 21.2564 0.5625 20.7636 0.5625 20.2498Z"
          fill="#D99BFF"/>
</svg>
